<mxfile host="app.diagrams.net" modified="2023-06-19T04:21:42.014Z" agent="Mozilla/5.0 (Macintosh; Intel Mac OS X 10_15_7) AppleWebKit/537.36 (KHTML, like Gecko) Chrome/114.0.0.0 Safari/537.36" etag="I4jf128eVHp7brOIOYKv" version="21.3.8" type="github">
  <diagram name="Page-1" id="V-Xa-GecJOjRG5GZjalC">
    <mxGraphModel dx="1434" dy="796" grid="1" gridSize="10" guides="1" tooltips="1" connect="1" arrows="1" fold="1" page="1" pageScale="1" pageWidth="827" pageHeight="1169" math="0" shadow="0">
      <root>
        <mxCell id="0" />
        <mxCell id="1" parent="0" />
        <mxCell id="Z-d5wn1NuOM1fkSidut5-19" value="Cat/кот" style="swimlane;fontStyle=0;childLayout=stackLayout;horizontal=1;startSize=26;fillColor=none;horizontalStack=0;resizeParent=1;resizeParentMax=0;resizeLast=0;collapsible=1;marginBottom=0;whiteSpace=wrap;html=1;" vertex="1" parent="1">
          <mxGeometry x="80" y="360" width="200" height="104" as="geometry" />
        </mxCell>
        <mxCell id="Z-d5wn1NuOM1fkSidut5-20" value="+ paws/лапки" style="text;strokeColor=none;fillColor=none;align=left;verticalAlign=top;spacingLeft=4;spacingRight=4;overflow=hidden;rotatable=0;points=[[0,0.5],[1,0.5]];portConstraint=eastwest;whiteSpace=wrap;html=1;" vertex="1" parent="Z-d5wn1NuOM1fkSidut5-19">
          <mxGeometry y="26" width="200" height="26" as="geometry" />
        </mxCell>
        <mxCell id="Z-d5wn1NuOM1fkSidut5-21" value="+ jump/прыгать()" style="text;strokeColor=none;fillColor=none;align=left;verticalAlign=top;spacingLeft=4;spacingRight=4;overflow=hidden;rotatable=0;points=[[0,0.5],[1,0.5]];portConstraint=eastwest;whiteSpace=wrap;html=1;" vertex="1" parent="Z-d5wn1NuOM1fkSidut5-19">
          <mxGeometry y="52" width="200" height="26" as="geometry" />
        </mxCell>
        <mxCell id="Z-d5wn1NuOM1fkSidut5-23" value="+ purr/мурлыкать()" style="text;strokeColor=none;fillColor=none;align=left;verticalAlign=top;spacingLeft=4;spacingRight=4;overflow=hidden;rotatable=0;points=[[0,0.5],[1,0.5]];portConstraint=eastwest;whiteSpace=wrap;html=1;" vertex="1" parent="Z-d5wn1NuOM1fkSidut5-19">
          <mxGeometry y="78" width="200" height="26" as="geometry" />
        </mxCell>
        <mxCell id="Z-d5wn1NuOM1fkSidut5-25" value="Human/человек" style="swimlane;fontStyle=0;childLayout=stackLayout;horizontal=1;startSize=26;fillColor=none;horizontalStack=0;resizeParent=1;resizeParentMax=0;resizeLast=0;collapsible=1;marginBottom=0;whiteSpace=wrap;html=1;" vertex="1" parent="1">
          <mxGeometry x="50" y="50" width="200" height="216" as="geometry" />
        </mxCell>
        <mxCell id="Z-d5wn1NuOM1fkSidut5-26" value="+ think/думать()" style="text;strokeColor=none;fillColor=none;align=left;verticalAlign=top;spacingLeft=4;spacingRight=4;overflow=hidden;rotatable=0;points=[[0,0.5],[1,0.5]];portConstraint=eastwest;whiteSpace=wrap;html=1;" vertex="1" parent="Z-d5wn1NuOM1fkSidut5-25">
          <mxGeometry y="26" width="200" height="26" as="geometry" />
        </mxCell>
        <mxCell id="Z-d5wn1NuOM1fkSidut5-27" value="+ talk/говорить()" style="text;strokeColor=none;fillColor=none;align=left;verticalAlign=top;spacingLeft=4;spacingRight=4;overflow=hidden;rotatable=0;points=[[0,0.5],[1,0.5]];portConstraint=eastwest;whiteSpace=wrap;html=1;" vertex="1" parent="Z-d5wn1NuOM1fkSidut5-25">
          <mxGeometry y="52" width="200" height="26" as="geometry" />
        </mxCell>
        <mxCell id="Z-d5wn1NuOM1fkSidut5-28" value="- though/мысль" style="text;strokeColor=none;fillColor=none;align=left;verticalAlign=top;spacingLeft=4;spacingRight=4;overflow=hidden;rotatable=0;points=[[0,0.5],[1,0.5]];portConstraint=eastwest;whiteSpace=wrap;html=1;" vertex="1" parent="Z-d5wn1NuOM1fkSidut5-25">
          <mxGeometry y="78" width="200" height="26" as="geometry" />
        </mxCell>
        <mxCell id="Z-d5wn1NuOM1fkSidut5-29" value="- language/язык говорения" style="text;strokeColor=none;fillColor=none;align=left;verticalAlign=top;spacingLeft=4;spacingRight=4;overflow=hidden;rotatable=0;points=[[0,0.5],[1,0.5]];portConstraint=eastwest;whiteSpace=wrap;html=1;" vertex="1" parent="Z-d5wn1NuOM1fkSidut5-25">
          <mxGeometry y="104" width="200" height="112" as="geometry" />
        </mxCell>
        <mxCell id="Z-d5wn1NuOM1fkSidut5-30" value="Siamese cat / сиамский кот" style="swimlane;fontStyle=0;childLayout=stackLayout;horizontal=1;startSize=26;fillColor=none;horizontalStack=0;resizeParent=1;resizeParentMax=0;resizeLast=0;collapsible=1;marginBottom=0;whiteSpace=wrap;html=1;" vertex="1" parent="1">
          <mxGeometry y="580" width="170" height="140" as="geometry" />
        </mxCell>
        <mxCell id="Z-d5wn1NuOM1fkSidut5-39" value="+ all Cat properties and methods but with its own implementation /&lt;br&gt;&lt;br&gt;все свойства и методы класса кот, только со своей специфичной реализацией" style="text;strokeColor=none;fillColor=none;align=left;verticalAlign=top;spacingLeft=4;spacingRight=4;overflow=hidden;rotatable=0;points=[[0,0.5],[1,0.5]];portConstraint=eastwest;whiteSpace=wrap;html=1;" vertex="1" parent="Z-d5wn1NuOM1fkSidut5-30">
          <mxGeometry y="26" width="170" height="114" as="geometry" />
        </mxCell>
        <mxCell id="Z-d5wn1NuOM1fkSidut5-34" value="" style="endArrow=block;endSize=16;endFill=0;html=1;rounded=0;entryX=0.515;entryY=1;entryDx=0;entryDy=0;entryPerimeter=0;exitX=0.545;exitY=-0.048;exitDx=0;exitDy=0;exitPerimeter=0;" edge="1" parent="1" source="Z-d5wn1NuOM1fkSidut5-30" target="Z-d5wn1NuOM1fkSidut5-23">
          <mxGeometry width="160" relative="1" as="geometry">
            <mxPoint x="330" y="700" as="sourcePoint" />
            <mxPoint x="490" y="700" as="targetPoint" />
          </mxGeometry>
        </mxCell>
        <mxCell id="Z-d5wn1NuOM1fkSidut5-36" value="Siamese cat / сиамский кот" style="swimlane;fontStyle=0;childLayout=stackLayout;horizontal=1;startSize=26;fillColor=none;horizontalStack=0;resizeParent=1;resizeParentMax=0;resizeLast=0;collapsible=1;marginBottom=0;whiteSpace=wrap;html=1;" vertex="1" parent="1">
          <mxGeometry x="190" y="580" width="170" height="140" as="geometry" />
        </mxCell>
        <mxCell id="Z-d5wn1NuOM1fkSidut5-40" value="+ all Cat properties and methods but with its own implementation /&lt;br&gt;&lt;br&gt;все свойства и методы класса кот, только со своей специфичной реализацией" style="text;strokeColor=none;fillColor=none;align=left;verticalAlign=top;spacingLeft=4;spacingRight=4;overflow=hidden;rotatable=0;points=[[0,0.5],[1,0.5]];portConstraint=eastwest;whiteSpace=wrap;html=1;" vertex="1" parent="Z-d5wn1NuOM1fkSidut5-36">
          <mxGeometry y="26" width="170" height="114" as="geometry" />
        </mxCell>
        <mxCell id="Z-d5wn1NuOM1fkSidut5-37" value="" style="endArrow=block;endSize=16;endFill=0;html=1;rounded=0;exitX=0.5;exitY=0;exitDx=0;exitDy=0;entryX=0.545;entryY=0.962;entryDx=0;entryDy=0;entryPerimeter=0;" edge="1" parent="1" source="Z-d5wn1NuOM1fkSidut5-36" target="Z-d5wn1NuOM1fkSidut5-23">
          <mxGeometry width="160" relative="1" as="geometry">
            <mxPoint x="159" y="593" as="sourcePoint" />
            <mxPoint x="238" y="468" as="targetPoint" />
          </mxGeometry>
        </mxCell>
        <mxCell id="Z-d5wn1NuOM1fkSidut5-41" value="Robot/робот" style="swimlane;fontStyle=0;childLayout=stackLayout;horizontal=1;startSize=26;fillColor=none;horizontalStack=0;resizeParent=1;resizeParentMax=0;resizeLast=0;collapsible=1;marginBottom=0;whiteSpace=wrap;html=1;" vertex="1" parent="1">
          <mxGeometry x="500" y="360" width="200" height="78" as="geometry" />
        </mxCell>
        <mxCell id="Z-d5wn1NuOM1fkSidut5-42" value="+ scan/сканировать()" style="text;strokeColor=none;fillColor=none;align=left;verticalAlign=top;spacingLeft=4;spacingRight=4;overflow=hidden;rotatable=0;points=[[0,0.5],[1,0.5]];portConstraint=eastwest;whiteSpace=wrap;html=1;" vertex="1" parent="Z-d5wn1NuOM1fkSidut5-41">
          <mxGeometry y="26" width="200" height="26" as="geometry" />
        </mxCell>
        <mxCell id="Z-d5wn1NuOM1fkSidut5-43" value="+ operate/делать операцию()" style="text;strokeColor=none;fillColor=none;align=left;verticalAlign=top;spacingLeft=4;spacingRight=4;overflow=hidden;rotatable=0;points=[[0,0.5],[1,0.5]];portConstraint=eastwest;whiteSpace=wrap;html=1;" vertex="1" parent="Z-d5wn1NuOM1fkSidut5-41">
          <mxGeometry y="52" width="200" height="26" as="geometry" />
        </mxCell>
        <mxCell id="Z-d5wn1NuOM1fkSidut5-45" value="Swarm robot / роевой робот" style="swimlane;fontStyle=0;childLayout=stackLayout;horizontal=1;startSize=26;fillColor=none;horizontalStack=0;resizeParent=1;resizeParentMax=0;resizeLast=0;collapsible=1;marginBottom=0;whiteSpace=wrap;html=1;" vertex="1" parent="1">
          <mxGeometry x="414" y="580" width="170" height="150" as="geometry" />
        </mxCell>
        <mxCell id="Z-d5wn1NuOM1fkSidut5-47" value="+ all Robot properties and methods but with its own implementation /&lt;br&gt;&lt;br&gt;все свойства и методы класса робот, только со своей специфичной реализацией" style="text;strokeColor=none;fillColor=none;align=left;verticalAlign=top;spacingLeft=4;spacingRight=4;overflow=hidden;rotatable=0;points=[[0,0.5],[1,0.5]];portConstraint=eastwest;whiteSpace=wrap;html=1;" vertex="1" parent="Z-d5wn1NuOM1fkSidut5-45">
          <mxGeometry y="26" width="170" height="124" as="geometry" />
        </mxCell>
        <mxCell id="Z-d5wn1NuOM1fkSidut5-48" value="Humanoid robot / человекоподобный робот" style="swimlane;fontStyle=0;childLayout=stackLayout;horizontal=1;startSize=26;fillColor=none;horizontalStack=0;resizeParent=1;resizeParentMax=0;resizeLast=0;collapsible=1;marginBottom=0;whiteSpace=wrap;html=1;" vertex="1" parent="1">
          <mxGeometry x="640" y="580" width="170" height="150" as="geometry" />
        </mxCell>
        <mxCell id="Z-d5wn1NuOM1fkSidut5-49" value="+ all Robot properties and methods but with its own implementation /&lt;br style=&quot;border-color: var(--border-color);&quot;&gt;&lt;br style=&quot;border-color: var(--border-color);&quot;&gt;все свойства и методы класса робот, только со своей специфичной реализацией" style="text;strokeColor=none;fillColor=none;align=left;verticalAlign=top;spacingLeft=4;spacingRight=4;overflow=hidden;rotatable=0;points=[[0,0.5],[1,0.5]];portConstraint=eastwest;whiteSpace=wrap;html=1;" vertex="1" parent="Z-d5wn1NuOM1fkSidut5-48">
          <mxGeometry y="26" width="170" height="124" as="geometry" />
        </mxCell>
        <mxCell id="Z-d5wn1NuOM1fkSidut5-51" value="" style="endArrow=block;endSize=16;endFill=0;html=1;rounded=0;exitX=0.545;exitY=-0.048;exitDx=0;exitDy=0;exitPerimeter=0;" edge="1" parent="1">
          <mxGeometry width="160" relative="1" as="geometry">
            <mxPoint x="494" y="580" as="sourcePoint" />
            <mxPoint x="596" y="440" as="targetPoint" />
          </mxGeometry>
        </mxCell>
        <mxCell id="Z-d5wn1NuOM1fkSidut5-55" value="" style="endArrow=block;endSize=16;endFill=0;html=1;rounded=0;exitX=0.5;exitY=0;exitDx=0;exitDy=0;" edge="1" parent="1">
          <mxGeometry width="160" relative="1" as="geometry">
            <mxPoint x="716" y="580" as="sourcePoint" />
            <mxPoint x="610" y="440" as="targetPoint" />
          </mxGeometry>
        </mxCell>
        <mxCell id="Z-d5wn1NuOM1fkSidut5-56" value="Робот-кот" style="swimlane;fontStyle=0;childLayout=stackLayout;horizontal=1;startSize=26;fillColor=none;horizontalStack=0;resizeParent=1;resizeParentMax=0;resizeLast=0;collapsible=1;marginBottom=0;whiteSpace=wrap;html=1;" vertex="1" parent="1">
          <mxGeometry x="40" y="890" width="200" height="124" as="geometry" />
        </mxCell>
        <mxCell id="Z-d5wn1NuOM1fkSidut5-73" value="+ operate/делать операцию()" style="text;strokeColor=none;fillColor=none;align=left;verticalAlign=top;spacingLeft=4;spacingRight=4;overflow=hidden;rotatable=0;points=[[0,0.5],[1,0.5]];portConstraint=eastwest;whiteSpace=wrap;html=1;" vertex="1" parent="Z-d5wn1NuOM1fkSidut5-56">
          <mxGeometry y="26" width="200" height="24" as="geometry" />
        </mxCell>
        <mxCell id="Z-d5wn1NuOM1fkSidut5-75" value="+ scan/сканировать()" style="text;strokeColor=none;fillColor=none;align=left;verticalAlign=top;spacingLeft=4;spacingRight=4;overflow=hidden;rotatable=0;points=[[0,0.5],[1,0.5]];portConstraint=eastwest;whiteSpace=wrap;html=1;" vertex="1" parent="Z-d5wn1NuOM1fkSidut5-56">
          <mxGeometry y="50" width="200" height="26" as="geometry" />
        </mxCell>
        <mxCell id="Z-d5wn1NuOM1fkSidut5-72" value="+ scan/сканировать()" style="text;strokeColor=none;fillColor=none;align=left;verticalAlign=top;spacingLeft=4;spacingRight=4;overflow=hidden;rotatable=0;points=[[0,0.5],[1,0.5]];portConstraint=eastwest;whiteSpace=wrap;html=1;" vertex="1" parent="Z-d5wn1NuOM1fkSidut5-56">
          <mxGeometry y="76" width="200" height="22" as="geometry" />
        </mxCell>
        <mxCell id="Z-d5wn1NuOM1fkSidut5-74" value="+ jump/прыгать()" style="text;strokeColor=none;fillColor=none;align=left;verticalAlign=top;spacingLeft=4;spacingRight=4;overflow=hidden;rotatable=0;points=[[0,0.5],[1,0.5]];portConstraint=eastwest;whiteSpace=wrap;html=1;" vertex="1" parent="Z-d5wn1NuOM1fkSidut5-56">
          <mxGeometry y="98" width="200" height="26" as="geometry" />
        </mxCell>
        <mxCell id="Z-d5wn1NuOM1fkSidut5-62" value="Cat/кот" style="swimlane;fontStyle=0;childLayout=stackLayout;horizontal=1;startSize=26;fillColor=none;horizontalStack=0;resizeParent=1;resizeParentMax=0;resizeLast=0;collapsible=1;marginBottom=0;whiteSpace=wrap;html=1;" vertex="1" parent="1">
          <mxGeometry x="360" y="760" width="200" height="104" as="geometry" />
        </mxCell>
        <mxCell id="Z-d5wn1NuOM1fkSidut5-63" value="+ paws/лапки" style="text;strokeColor=none;fillColor=none;align=left;verticalAlign=top;spacingLeft=4;spacingRight=4;overflow=hidden;rotatable=0;points=[[0,0.5],[1,0.5]];portConstraint=eastwest;whiteSpace=wrap;html=1;" vertex="1" parent="Z-d5wn1NuOM1fkSidut5-62">
          <mxGeometry y="26" width="200" height="26" as="geometry" />
        </mxCell>
        <mxCell id="Z-d5wn1NuOM1fkSidut5-64" value="+ jump/прыгать()" style="text;strokeColor=none;fillColor=none;align=left;verticalAlign=top;spacingLeft=4;spacingRight=4;overflow=hidden;rotatable=0;points=[[0,0.5],[1,0.5]];portConstraint=eastwest;whiteSpace=wrap;html=1;" vertex="1" parent="Z-d5wn1NuOM1fkSidut5-62">
          <mxGeometry y="52" width="200" height="26" as="geometry" />
        </mxCell>
        <mxCell id="Z-d5wn1NuOM1fkSidut5-65" value="+ purr/мурлыкать()" style="text;strokeColor=none;fillColor=none;align=left;verticalAlign=top;spacingLeft=4;spacingRight=4;overflow=hidden;rotatable=0;points=[[0,0.5],[1,0.5]];portConstraint=eastwest;whiteSpace=wrap;html=1;" vertex="1" parent="Z-d5wn1NuOM1fkSidut5-62">
          <mxGeometry y="78" width="200" height="26" as="geometry" />
        </mxCell>
        <mxCell id="Z-d5wn1NuOM1fkSidut5-66" value="Robot/робот" style="swimlane;fontStyle=0;childLayout=stackLayout;horizontal=1;startSize=26;fillColor=none;horizontalStack=0;resizeParent=1;resizeParentMax=0;resizeLast=0;collapsible=1;marginBottom=0;whiteSpace=wrap;html=1;" vertex="1" parent="1">
          <mxGeometry x="360" y="1000" width="200" height="78" as="geometry" />
        </mxCell>
        <mxCell id="Z-d5wn1NuOM1fkSidut5-67" value="+ scan/сканировать()" style="text;strokeColor=none;fillColor=none;align=left;verticalAlign=top;spacingLeft=4;spacingRight=4;overflow=hidden;rotatable=0;points=[[0,0.5],[1,0.5]];portConstraint=eastwest;whiteSpace=wrap;html=1;" vertex="1" parent="Z-d5wn1NuOM1fkSidut5-66">
          <mxGeometry y="26" width="200" height="26" as="geometry" />
        </mxCell>
        <mxCell id="Z-d5wn1NuOM1fkSidut5-68" value="+ operate/делать операцию()" style="text;strokeColor=none;fillColor=none;align=left;verticalAlign=top;spacingLeft=4;spacingRight=4;overflow=hidden;rotatable=0;points=[[0,0.5],[1,0.5]];portConstraint=eastwest;whiteSpace=wrap;html=1;" vertex="1" parent="Z-d5wn1NuOM1fkSidut5-66">
          <mxGeometry y="52" width="200" height="26" as="geometry" />
        </mxCell>
        <mxCell id="Z-d5wn1NuOM1fkSidut5-70" value="" style="endArrow=diamondThin;endFill=1;endSize=24;html=1;rounded=0;entryX=1;entryY=-0.042;entryDx=0;entryDy=0;entryPerimeter=0;exitX=0;exitY=0.5;exitDx=0;exitDy=0;" edge="1" parent="1" source="Z-d5wn1NuOM1fkSidut5-64" target="Z-d5wn1NuOM1fkSidut5-73">
          <mxGeometry width="160" relative="1" as="geometry">
            <mxPoint x="100" y="840" as="sourcePoint" />
            <mxPoint x="239.01999999999998" y="960.988" as="targetPoint" />
            <Array as="points">
              <mxPoint x="280" y="825" />
              <mxPoint x="280" y="917" />
            </Array>
          </mxGeometry>
        </mxCell>
        <mxCell id="Z-d5wn1NuOM1fkSidut5-71" value="" style="endArrow=diamondThin;endFill=1;endSize=24;html=1;rounded=0;entryX=1.005;entryY=-0.038;entryDx=0;entryDy=0;entryPerimeter=0;exitX=-0.015;exitY=0.923;exitDx=0;exitDy=0;exitPerimeter=0;" edge="1" parent="1" source="Z-d5wn1NuOM1fkSidut5-67" target="Z-d5wn1NuOM1fkSidut5-74">
          <mxGeometry width="160" relative="1" as="geometry">
            <mxPoint x="360" y="850" as="sourcePoint" />
            <mxPoint x="239" y="942" as="targetPoint" />
            <Array as="points">
              <mxPoint x="280" y="1050" />
              <mxPoint x="280" y="987" />
            </Array>
          </mxGeometry>
        </mxCell>
      </root>
    </mxGraphModel>
  </diagram>
</mxfile>
